<svg width="1139" height="324" viewBox="0 0 1139 324" fill="none" xmlns="http://www.w3.org/2000/svg">
<g filter="url(#filter0_d_4_3)">
<path d="M1099 157.39C1099 222.223 881.164 284 564.657 284C248.15 284 40 222.223 40 157.39C40 92.5575 219.191 40 552.55 40C885.909 40 1099 92.5575 1099 157.39Z" fill="url(#paint0_diamond_4_3)" fill-opacity="0.7" shape-rendering="crispEdges"/>
</g>
<g filter="url(#filter1_b_4_3)">
<path d="M302.215 201.517C296.711 201.517 291.42 200.798 286.34 199.358C281.26 197.834 277.28 195.929 274.402 193.643L279.482 183.991C282.445 186.108 286.043 187.801 290.277 189.071C294.51 190.341 298.786 190.976 303.104 190.976C313.772 190.976 319.106 187.928 319.106 181.832C319.106 179.8 318.386 178.192 316.947 177.006C315.507 175.821 313.687 174.974 311.486 174.466C309.369 173.874 306.321 173.239 302.342 172.561C296.923 171.715 292.478 170.741 289.007 169.64C285.62 168.54 282.699 166.677 280.244 164.052C277.788 161.428 276.561 157.745 276.561 153.003C276.561 146.907 279.101 142.039 284.181 138.398C289.261 134.673 296.076 132.81 304.628 132.81C309.115 132.81 313.602 133.361 318.09 134.461C322.577 135.562 326.26 137.044 329.139 138.906L323.932 148.558C318.428 145.002 311.951 143.224 304.501 143.224C299.336 143.224 295.399 144.071 292.69 145.764C289.98 147.458 288.626 149.701 288.626 152.495C288.626 154.697 289.388 156.432 290.912 157.702C292.436 158.972 294.298 159.904 296.5 160.496C298.786 161.089 301.961 161.766 306.025 162.528C311.443 163.46 315.804 164.476 319.106 165.576C322.492 166.592 325.371 168.37 327.742 170.91C330.112 173.45 331.298 177.006 331.298 181.578C331.298 187.674 328.673 192.543 323.424 196.183C318.259 199.739 311.189 201.517 302.215 201.517ZM394.414 201.517C387.725 201.517 381.714 200.036 376.38 197.072C371.046 194.109 366.855 190.045 363.807 184.88C360.844 179.631 359.362 173.704 359.362 167.1C359.362 160.496 360.844 154.612 363.807 149.447C366.855 144.198 371.046 140.134 376.38 137.255C381.714 134.292 387.725 132.81 394.414 132.81C401.103 132.81 407.072 134.292 412.321 137.255C417.655 140.134 421.804 144.198 424.767 149.447C427.815 154.612 429.339 160.496 429.339 167.1C429.339 173.704 427.815 179.631 424.767 184.88C421.804 190.045 417.655 194.109 412.321 197.072C407.072 200.036 401.103 201.517 394.414 201.517ZM394.414 190.849C398.732 190.849 402.584 189.876 405.971 187.928C409.442 185.896 412.152 183.102 414.099 179.546C416.046 175.906 417.02 171.757 417.02 167.1C417.02 162.444 416.046 158.337 414.099 154.781C412.152 151.141 409.442 148.347 405.971 146.399C402.584 144.452 398.732 143.478 394.414 143.478C390.096 143.478 386.201 144.452 382.73 146.399C379.343 148.347 376.634 151.141 374.602 154.781C372.655 158.337 371.681 162.444 371.681 167.1C371.681 171.757 372.655 175.906 374.602 179.546C376.634 183.102 379.343 185.896 382.73 187.928C386.201 189.876 390.096 190.849 394.414 190.849ZM549.451 132.81C557.918 132.81 564.606 135.266 569.517 140.176C574.512 145.087 577.01 152.368 577.01 162.02V200.755H564.818V163.417C564.818 156.898 563.294 151.987 560.246 148.685C557.283 145.383 553.007 143.732 547.419 143.732C541.238 143.732 536.328 145.68 532.687 149.574C529.046 153.384 527.226 158.888 527.226 166.084V200.755H515.034V163.417C515.034 156.898 513.51 151.987 510.462 148.685C507.499 145.383 503.223 143.732 497.635 143.732C491.454 143.732 486.544 145.68 482.903 149.574C479.262 153.384 477.442 158.888 477.442 166.084V200.755H465.25V133.445H476.934V143.478C479.389 140.007 482.607 137.382 486.586 135.604C490.565 133.742 495.095 132.81 500.175 132.81C505.424 132.81 510.081 133.869 514.145 135.985C518.209 138.102 521.342 141.192 523.543 145.256C526.083 141.362 529.597 138.314 534.084 136.112C538.656 133.911 543.778 132.81 549.451 132.81ZM618.493 133.445H630.685V200.755H618.493V133.445ZM624.589 120.491C622.219 120.491 620.229 119.729 618.62 118.205C617.096 116.681 616.334 114.819 616.334 112.617C616.334 110.416 617.096 108.553 618.62 107.029C620.229 105.421 622.219 104.616 624.589 104.616C626.96 104.616 628.907 105.378 630.431 106.902C632.04 108.342 632.844 110.162 632.844 112.363C632.844 114.649 632.04 116.597 630.431 118.205C628.907 119.729 626.96 120.491 624.589 120.491ZM708.955 132.81C717.506 132.81 724.28 135.308 729.275 140.303C734.355 145.214 736.895 152.453 736.895 162.02V200.755H724.703V163.417C724.703 156.898 723.137 151.987 720.004 148.685C716.871 145.383 712.384 143.732 706.542 143.732C699.938 143.732 694.731 145.68 690.921 149.574C687.111 153.384 685.206 158.888 685.206 166.084V200.755H673.014V133.445H684.698V143.605C687.153 140.134 690.455 137.467 694.604 135.604C698.837 133.742 703.621 132.81 708.955 132.81ZM803.019 132.81C812.333 132.81 819.445 135.096 824.355 139.668C829.351 144.24 831.848 151.056 831.848 160.115V200.755H820.291V191.865C818.259 194.998 815.338 197.411 811.528 199.104C807.803 200.713 803.358 201.517 798.193 201.517C790.658 201.517 784.604 199.697 780.032 196.056C775.545 192.416 773.301 187.632 773.301 181.705C773.301 175.779 775.46 171.037 779.778 167.481C784.096 163.841 790.954 162.02 800.352 162.02H819.656V159.607C819.656 154.358 818.132 150.336 815.084 147.542C812.036 144.748 807.549 143.351 801.622 143.351C797.643 143.351 793.748 144.029 789.938 145.383C786.128 146.653 782.911 148.389 780.286 150.59L775.206 141.446C778.678 138.652 782.826 136.536 787.652 135.096C792.478 133.572 797.601 132.81 803.019 132.81ZM800.225 192.119C804.882 192.119 808.904 191.103 812.29 189.071C815.677 186.955 818.132 183.991 819.656 180.181V170.783H800.86C790.531 170.783 785.366 174.255 785.366 181.197C785.366 184.584 786.679 187.251 789.303 189.198C791.928 191.146 795.569 192.119 800.225 192.119ZM885.145 144.748C887.261 140.854 890.394 137.89 894.543 135.858C898.691 133.826 903.729 132.81 909.656 132.81V144.621C908.978 144.537 908.047 144.494 906.862 144.494C900.258 144.494 895.051 146.484 891.241 150.463C887.515 154.358 885.653 159.946 885.653 167.227V200.755H873.461V133.445H885.145V144.748ZM943.732 133.445H955.924V200.755H943.732V133.445ZM949.828 120.491C947.458 120.491 945.468 119.729 943.859 118.205C942.335 116.681 941.573 114.819 941.573 112.617C941.573 110.416 942.335 108.553 943.859 107.029C945.468 105.421 947.458 104.616 949.828 104.616C952.199 104.616 954.146 105.378 955.67 106.902C957.279 108.342 958.083 110.162 958.083 112.363C958.083 114.649 957.279 116.597 955.67 118.205C954.146 119.729 952.199 120.491 949.828 120.491Z" fill="#E5E5E5"/>
</g>
<g filter="url(#filter2_d_4_3)">
<path d="M453.967 40.3522C452.765 40.3522 424.32 32.6447 400.885 29.903C377.45 27.1614 356.083 22.592 320.931 24.4197C285.779 26.2475 269.237 29.903 243.045 36.7572C216.853 43.6113 198.932 50.4654 170.672 69.2C142.413 87.9347 145.17 88.3916 132.763 104.842C120.356 121.291 115.532 144.595 115.532 144.595C115.532 144.595 112.085 159.675 115.532 173.383C118.978 187.091 132.763 204.455 132.763 204.455C132.763 204.455 142.413 220.905 164.469 236.441C186.287 251.809 204.059 258.235 226.456 266.333L227.192 266.599C249.937 274.824 274.44 277.528 295.429 280.764C316.417 284 332.495 284 344.902 284C357.309 284 390 282.5 390 282.5L417.5 280.764L445 279L394 266.5L362.823 257.954L340.077 251.1L320.931 244.246L303.546 236.441L285.779 226.845L276.665 221.399L259 209.5C259 209.5 241 191.5 237 174L234.5 165V154.5C234.5 154.5 236.864 132.897 241 126.5C245.136 120.103 253 108.5 259 103.5C265 98.5 279.576 89.7624 285.779 85.6499C291.982 81.5375 320.931 69.2 320.931 69.2C320.931 69.2 346.434 60.0612 356.083 57.3196C365.733 54.5779 378.14 50.0085 400.885 47.7238C423.631 45.4391 455.168 40.3522 453.967 40.3522Z" fill="#C3C6D3"/>
</g>
<defs>
<filter id="filter0_d_4_3" x="0" y="0" width="1139" height="324" filterUnits="userSpaceOnUse" color-interpolation-filters="sRGB">
<feFlood flood-opacity="0" result="BackgroundImageFix"/>
<feColorMatrix in="SourceAlpha" type="matrix" values="0 0 0 0 0 0 0 0 0 0 0 0 0 0 0 0 0 0 127 0" result="hardAlpha"/>
<feOffset/>
<feGaussianBlur stdDeviation="20"/>
<feComposite in2="hardAlpha" operator="out"/>
<feColorMatrix type="matrix" values="0 0 0 0 1 0 0 0 0 1 0 0 0 0 1 0 0 0 0.56 0"/>
<feBlend mode="normal" in2="BackgroundImageFix" result="effect1_dropShadow_4_3"/>
<feBlend mode="normal" in="SourceGraphic" in2="effect1_dropShadow_4_3" result="shape"/>
</filter>
<filter id="filter1_b_4_3" x="174.402" y="4.61627" width="883.682" height="296.901" filterUnits="userSpaceOnUse" color-interpolation-filters="sRGB">
<feFlood flood-opacity="0" result="BackgroundImageFix"/>
<feGaussianBlur in="BackgroundImage" stdDeviation="50"/>
<feComposite in2="SourceAlpha" operator="in" result="effect1_backgroundBlur_4_3"/>
<feBlend mode="normal" in="SourceGraphic" in2="effect1_backgroundBlur_4_3" result="shape"/>
</filter>
<filter id="filter2_d_4_3" x="104" y="20" width="360" height="280" filterUnits="userSpaceOnUse" color-interpolation-filters="sRGB">
<feFlood flood-opacity="0" result="BackgroundImageFix"/>
<feColorMatrix in="SourceAlpha" type="matrix" values="0 0 0 0 0 0 0 0 0 0 0 0 0 0 0 0 0 0 127 0" result="hardAlpha"/>
<feOffset dy="6"/>
<feGaussianBlur stdDeviation="5"/>
<feComposite in2="hardAlpha" operator="out"/>
<feColorMatrix type="matrix" values="0 0 0 0 0.19184 0 0 0 0 0.208596 0 0 0 0 0.270833 0 0 0 1 0"/>
<feBlend mode="normal" in2="BackgroundImageFix" result="effect1_dropShadow_4_3"/>
<feBlend mode="normal" in="SourceGraphic" in2="effect1_dropShadow_4_3" result="shape"/>
</filter>
<radialGradient id="paint0_diamond_4_3" cx="0" cy="0" r="1" gradientUnits="userSpaceOnUse" gradientTransform="translate(934.736 69.7319) rotate(163.943) scale(682.777 4167.28)">
<stop stop-color="#1642B3" stop-opacity="0.67"/>
<stop offset="0.0001" stop-color="#2D29EF" stop-opacity="0.81"/>
<stop offset="1" stop-color="#6829B9" stop-opacity="0.57"/>
</radialGradient>
</defs>
</svg>
